<svg width="60" height="42" viewBox="0 0 60 42" fill="none" xmlns="http://www.w3.org/2000/svg">
<g clip-path="url(#clip0_199_615)">
<path d="M8.27319 8.95958C8.25628 14.2119 8.32495 19.6058 10.4101 24.517C12.3105 28.9929 15.7505 32.6001 20.4862 34.0109C22.9377 34.7412 25.5576 34.901 28.102 34.9403C30.6708 34.98 33.2985 34.8803 35.7961 34.2267C40.4656 33.0048 44.1033 29.5704 46.1032 25.236C48.6175 19.787 48.6007 13.7799 48.4325 7.89991C48.3905 6.43279 46.8431 4.86316 45.2679 5.48921C34.6258 9.71869 22.7909 9.6305 12.2073 5.26004C10.9588 4.74447 9.45848 5.81794 9.13199 7.00614C8.73734 8.44242 9.62487 9.56393 10.8781 10.0814C22.1581 14.7395 35.2572 14.8174 46.5971 10.3106L43.4325 7.89991C43.6349 14.9739 43.8956 25.5956 35.9746 28.9188C34.1041 29.7035 32.0429 29.8923 30.0373 29.9374C27.9488 29.9844 25.7888 29.9864 23.7253 29.6328C19.8491 28.9684 17.0968 26.8271 15.3373 23.3343C13.1252 18.9432 13.2578 13.7464 13.2732 8.95959C13.2836 5.74192 8.28356 5.73747 8.27319 8.95958Z" fill="#FBFBFD"/>
<path d="M48.2014 16.511C47.7918 16.8417 48.5235 16.3415 48.6105 16.2877C48.8717 16.1627 48.8742 16.1567 48.6179 16.2697C48.7213 16.2303 48.826 16.1953 48.9322 16.1646C49.0512 16.1284 49.8174 15.9826 49.24 16.0532C49.4955 16.0219 49.7548 16.0169 50.0117 16.027C50.1221 16.0297 50.2322 16.0372 50.342 16.0495C50.0457 16.01 50.0384 16.0171 50.3203 16.0707C50.4342 16.1105 51.2343 16.4292 50.7147 16.1703C50.9036 16.2644 51.0812 16.3801 51.2687 16.475C51.501 16.637 51.5037 16.6295 51.2769 16.4524C51.3862 16.5409 51.4919 16.6337 51.5939 16.7305C51.7467 16.8757 51.8911 17.0301 52.0254 17.1925C51.6658 16.7575 52.1599 17.4617 52.2176 17.5623C52.5251 18.098 52.1419 17.1788 52.3018 17.7706C52.3323 17.8834 52.5162 18.7752 52.4387 18.1671C52.4662 18.3831 52.4756 18.6026 52.4764 18.8203C52.4769 18.9439 52.3709 19.8346 52.475 19.2493C52.4363 19.4671 52.391 19.6833 52.3335 19.8969C52.3069 19.9958 51.9959 20.8455 52.2143 20.3425C52.0102 20.8127 51.7403 21.2604 51.4356 21.6719C51.7494 21.2481 51.2699 21.8419 51.1959 21.9207C51.0212 22.1068 50.8389 22.2853 50.649 22.4559C50.5403 22.5535 50.4294 22.6485 50.3163 22.7411C50.5355 22.5774 50.5297 22.5806 50.2989 22.7506C50.1163 22.8744 49.9367 23.0013 49.7497 23.1188C49.3111 23.3945 48.8533 23.6273 48.3893 23.8555C48.1243 23.9732 48.1207 23.9774 48.3785 23.8681C48.2424 23.9234 48.1055 23.9767 47.9677 24.0278C47.7205 24.1196 47.4708 24.2048 47.2196 24.285C46.6337 24.4718 46.0378 24.6263 45.4378 24.7606C44.1476 25.0493 42.8378 25.238 41.5302 25.4268C40.2313 25.6144 39.4045 27.329 39.7841 28.5021C40.244 29.9235 41.4673 30.4493 42.8594 30.2482C47.6846 29.5513 52.6218 28.4157 55.6868 24.2828C58.6114 20.3392 57.9006 13.9982 53.1422 11.8097C50.229 10.4698 47.1337 10.9833 44.6659 12.9755C43.6439 13.8006 43.7431 15.6639 44.6659 16.511C45.7512 17.5073 47.1111 17.3912 48.2014 16.511Z" fill="#FBFBFD"/>
<path d="M13.1144 8.9216C16.3033 4.28075 23.8497 4.9966 28.7112 4.99949C34.2252 5.00276 40.2349 5.65826 44.1092 10.0304C46.2475 12.4436 49.773 8.89671 47.6447 6.49489C42.7784 1.0032 35.1697 -0.0297194 28.2305 0.000640598C21.2602 0.0311306 13.1803 0.0191603 8.79704 6.39801C8.03203 7.51132 8.5889 9.17216 9.69392 9.81848C10.9329 10.5432 12.3476 10.0375 13.1144 8.9216Z" fill="#FBFBFD"/>
<path d="M12.8825 24.573C9.26465 24.1377 5.43252 24.0579 2.51985 26.5936C0.00703073 28.7811 -0.883879 32.4856 1.0396 35.3572C2.65585 37.7702 5.55293 38.9158 8.27209 39.5635C11.9876 40.4486 15.7874 41.0349 19.5839 41.4368C26.9825 42.2199 34.4319 42.0442 41.799 41.0357C45.3193 40.5538 48.9461 39.9854 52.3456 38.9232C55.2659 38.0107 58.2057 36.4161 59.373 33.4184C60.7264 29.9426 58.8056 26.3511 55.8479 24.4471C52.1919 22.0938 47.6282 23.0322 43.7019 24.0414C40.5877 24.8418 41.9077 29.6656 45.0311 28.8628C47.3747 28.2604 50.3645 27.3089 52.7045 28.409C54.0572 29.045 55.4465 30.5989 54.506 32.0506C53.596 33.4552 51.4167 34.0291 49.8584 34.4257C47.0756 35.1341 44.2407 35.6696 41.3999 36.0835C35.5876 36.9304 29.6568 37.1255 23.7962 36.7827C20.8932 36.6128 17.999 36.307 15.1296 35.8343C12.5938 35.4166 9.89505 35.0433 7.48289 34.1207C6.06683 33.5791 4.16748 32.4606 5.36839 30.8222C6.99335 28.6054 10.57 29.2948 12.8825 29.5731C14.2252 29.7346 15.3825 28.3084 15.3825 27.0731C15.3825 25.5876 14.2291 24.7351 12.8825 24.573Z" fill="#FBFBFD"/>
</g>
<defs>
<clipPath id="clip0_199_615">
<rect width="59.8147" height="41.9255" fill="white"/>
</clipPath>
</defs>
</svg>
