<svg width="55" height="55" viewBox="0 0 55 55" fill="none" xmlns="http://www.w3.org/2000/svg">
<g clip-path="url(#clip0_199_622)">
<path d="M27.2909 6.11895e-07C16.187 0.00697061 5.79939 7.1105 1.74566 17.4322C-2.25888 27.6287 0.801335 40.4084 9.13203 47.5575C17.5942 54.8195 30.2756 56.4726 40.1131 51.0314C49.8354 45.654 55.5368 34.3887 53.99 23.4003C53.0841 16.9657 49.7843 10.7494 44.7476 6.59788C39.5031 2.27506 32.7656 -0.0535694 25.9559 0.362401C22.759 0.557681 22.7368 5.55904 25.9559 5.3624C36.0589 4.74526 45.4126 11.094 48.3313 20.8393C50.9805 29.685 47.653 39.332 40.3414 44.9328C33.0617 50.5091 22.8484 50.5702 15.1404 45.8074C7.36333 41.0019 3.55419 31.1588 5.49671 22.2941C7.68547 12.3056 17.1227 5.00638 27.2909 5C30.5081 4.99798 30.5136 -0.00201939 27.2909 6.11895e-07Z" fill="#FBFBFD"/>
<path d="M14.2164 36.2347C17.5502 39.632 22.1745 41.5579 26.9211 41.6918C31.9003 41.8323 36.6348 39.7894 40.0905 36.2348C42.3348 33.9263 38.8029 30.387 36.555 32.6993C33.9662 35.3622 30.6159 36.7961 26.9211 36.6918C23.4956 36.5952 20.1698 35.1631 17.7519 32.6992C15.4945 30.3988 11.9598 33.9352 14.2164 36.2347Z" fill="#FBFBFD"/>
<path d="M18.667 16.0803C18.157 16.2105 17.7462 16.4772 17.3677 16.834C17.1914 17.0001 17.0354 17.2032 16.9188 17.4166C16.856 17.5315 16.8229 17.6297 16.7651 17.7666C16.7239 17.8643 16.6468 18.0149 16.6122 18.1389C16.5418 18.3904 16.5004 18.6608 16.5046 18.9198C16.5051 18.9463 16.5069 18.9715 16.5084 18.9981C16.519 19.1802 16.5552 19.5272 16.6047 19.7012C16.6697 19.9295 16.7818 20.1877 16.892 20.3963C17.0146 20.6282 17.1878 20.8377 17.3661 21.0274C17.5798 21.2548 17.8374 21.4599 18.1213 21.5917C18.3432 21.6948 18.5838 21.8192 18.8236 21.8774C18.9512 21.9084 19.1025 21.9192 19.2207 21.9351C19.3493 21.9524 19.5087 21.9846 19.6496 21.9877C19.9924 21.9951 20.3513 21.9451 20.6773 21.8353C20.9636 21.7389 21.3307 21.5987 21.6028 21.4174C22.1332 21.0639 22.6587 20.6078 22.9365 20.0191C23.1836 19.4954 23.334 19.0853 23.3274 18.4889C23.3262 18.3714 23.2855 18.157 23.2793 18.1103C23.2649 18.003 23.2524 17.8357 23.222 17.7093C23.1599 17.4505 23.0452 17.1913 22.9133 16.9651C22.8978 16.9385 22.8814 16.9145 22.8645 16.889C22.751 16.718 22.583 16.4991 22.4454 16.3475C22.2748 16.1597 22.0236 15.9948 21.8416 15.8607C21.7979 15.8285 21.7557 15.7977 21.7075 15.7721C21.5936 15.7119 21.4568 15.6626 21.3468 15.6162C21.2244 15.5646 21.0865 15.4957 20.9523 15.4561C20.295 15.2624 19.5156 15.2943 18.8625 15.4848C18.8001 15.5029 18.7397 15.5253 18.6793 15.549C18.4354 15.6447 18.1829 15.7399 17.9505 15.8628C17.9008 15.8891 17.8526 15.9183 17.8064 15.9504C17.589 16.1012 17.3643 16.2667 17.1688 16.4457C17.1211 16.4895 17.0794 16.5375 17.0383 16.5873C16.8802 16.7792 16.7069 16.9787 16.5799 17.194C16.4117 17.4793 16.2692 17.803 16.2038 18.1307C16.1603 18.3486 16.1241 18.6216 16.1082 18.8429C16.1059 18.875 16.1033 18.9062 16.1035 18.9385C16.1054 19.1923 16.1554 19.4744 16.2031 19.722C16.2346 19.8853 16.3049 20.0182 16.3719 20.177C16.4362 20.3294 16.488 20.4838 16.5767 20.6227C16.8469 21.0459 17.0301 21.2275 17.3908 21.5062C17.7853 21.811 17.9896 21.9129 18.4974 22.1046C18.7041 22.1826 18.8974 22.2 19.1211 22.2301C19.3773 22.2645 19.5949 22.3011 19.8477 22.2726C20.1868 22.2344 20.5382 22.2051 20.866 22.1009C21.2058 21.9929 21.5333 21.8396 21.8583 21.6952C22.0913 21.5916 22.3246 21.4807 22.5337 21.3335C22.7829 21.1581 23.0444 20.9757 23.2611 20.7586C23.3712 20.6484 23.462 20.5152 23.5559 20.3938C23.6489 20.2733 23.7681 20.1425 23.8415 20.001C24.1082 19.4867 24.2321 19.0401 24.2659 18.462C24.2855 18.1278 24.2409 17.7741 24.1243 17.4601C23.9194 16.9082 23.7266 16.5443 23.3153 16.106C23.0903 15.8662 22.8155 15.6542 22.5247 15.5002C22.2442 15.3516 21.9285 15.1971 21.6094 15.1355C21.3357 15.0826 21.0442 15.0389 20.7652 15.0252C20.6802 15.0211 20.595 15.0243 20.5104 15.033C20.1392 15.0712 19.7582 15.1093 19.3981 15.215C19.2223 15.2665 19.0508 15.3314 18.8797 15.3966C18.5544 15.4739 18.271 15.6231 18.0296 15.8441C17.7574 16.0204 17.5428 16.2542 17.3857 16.5455C17.203 16.8325 17.1041 17.1423 17.089 17.475C17.0146 17.8073 17.0295 18.1396 17.1336 18.4719C17.3294 19.0768 17.7043 19.6604 18.2825 19.966L18.8797 20.218C19.3228 20.3371 19.7659 20.3371 20.2089 20.218C20.4966 20.1083 20.7853 20.0032 21.0904 19.9541L20.4258 20.0434C20.5777 20.0232 20.7264 20.0188 20.8789 20.0353L20.2143 19.946C20.3198 19.9619 20.418 19.9897 20.5166 20.0303L19.9194 19.7782C20.0025 19.8162 20.0792 19.8606 20.1533 19.9141L19.6474 19.5232C19.7178 19.5786 19.78 19.6385 19.8367 19.708L19.4458 19.202C19.4891 19.2606 19.5248 19.3203 19.5549 19.3865L19.3029 18.7893C19.3239 18.8433 19.3392 18.8962 19.35 18.953L19.2607 18.2884C19.27 18.3617 19.2697 18.4311 19.2607 18.5042L19.35 17.8396C19.3398 17.8949 19.3257 17.9469 19.3064 17.9997L19.5584 17.4025C19.5253 17.48 19.4842 17.5495 19.434 17.6172L19.8249 17.1112C19.7513 17.2024 19.6682 17.2809 19.5765 17.3536L20.0825 16.9627C19.8238 17.1581 19.5274 17.296 19.2307 17.423L19.8279 17.171C19.6189 17.2574 19.4072 17.3276 19.1831 17.3619L19.8477 17.2726C19.7153 17.2886 19.5858 17.292 19.4534 17.2747L20.118 17.364C20.017 17.3472 19.9217 17.321 19.8265 17.2832L20.4237 17.5352C20.3312 17.4945 20.2475 17.446 20.1674 17.3843L20.6734 17.7752C20.6194 17.7298 20.5717 17.6815 20.5275 17.6267L20.9184 18.1327C20.8768 18.0753 20.8433 18.0169 20.8152 17.952L21.0673 18.5492C21.0455 18.4899 21.0308 18.4316 21.0207 18.3692L21.11 19.0338C21.102 18.9528 21.1038 18.8758 21.1145 18.7953L21.0252 19.4599C21.0403 19.3793 21.0627 19.3042 21.0937 19.2285L20.8417 19.8257C20.8764 19.7512 20.9165 19.6832 20.9648 19.6169L20.5738 20.1229C20.635 20.047 20.702 19.9808 20.7777 19.9194L20.2717 20.3103C20.3759 20.2322 20.4863 20.1701 20.6057 20.1184L20.0085 20.3704C20.1521 20.3132 20.2988 20.2739 20.4516 20.2502L19.787 20.3395C19.9001 20.326 20.0101 20.323 20.1236 20.3337L19.459 20.2444C19.5493 20.2575 19.6341 20.2783 19.719 20.3116L19.1218 20.0596C19.1928 20.0922 19.2562 20.1305 19.3179 20.1781L18.812 19.7872C18.8587 19.8277 18.8995 19.8701 18.938 19.9186L18.5471 19.4126C18.5735 19.4508 18.5953 19.4875 18.6161 19.5289L18.3641 18.9317C18.388 18.9897 18.4035 19.0453 18.4132 19.1072L18.3239 18.4426C18.3275 18.49 18.3274 18.5331 18.3237 18.5804L18.413 17.9158C18.4036 17.9774 18.3886 18.0342 18.367 18.0927L18.6191 17.4955C18.587 17.5689 18.5484 17.6349 18.5019 17.6999L18.8929 17.194C18.8215 17.2849 18.7424 17.3626 18.652 17.4346L19.158 17.0437C19.0466 17.1262 18.9283 17.1928 18.8008 17.247L19.398 16.995C19.3141 17.0267 19.2309 17.0506 19.1427 17.0664L19.8073 16.9771C19.7214 16.9879 19.6389 16.9898 19.553 16.9797L20.2176 17.069C20.1587 17.0585 20.1037 17.0433 20.0476 17.0223L20.6448 17.2744C20.5903 17.2501 20.5407 17.2225 20.4916 17.1886L20.9976 17.5795C20.9513 17.5428 20.9117 17.5043 20.8742 17.4586L21.2651 17.9646C21.2396 17.928 21.2193 17.8934 21.2 17.8532L21.452 18.4504C21.4369 18.4105 21.4267 18.3753 21.4191 18.3335L21.5084 18.9981C21.5047 18.9575 21.5045 18.9212 21.5076 18.8806L21.4183 19.5452C21.4266 19.4921 21.44 19.4442 21.4604 19.3944L21.2084 19.9916C21.2265 19.9557 21.2453 19.9249 21.2689 19.8924L20.878 20.3984C20.9041 20.3684 20.9292 20.3443 20.9603 20.3195L20.4544 20.7104C20.4749 20.6956 20.4968 20.6831 20.52 20.6728L19.9228 20.9248C19.9464 20.9144 19.9708 20.9067 19.9961 20.9017C20.3215 20.8244 20.6049 20.6752 20.8463 20.4543C21.1185 20.278 21.3331 20.0442 21.4902 19.7528C21.6729 19.4659 21.7718 19.156 21.7869 18.8233C21.8613 18.491 21.8464 18.1587 21.7422 17.8264C21.5465 17.2215 21.1716 16.6379 20.5933 16.3324C19.9916 16.0144 19.3367 15.9094 18.667 16.0803Z" fill="#FBFBFD"/>
<path d="M32.7627 16.0803C32.2527 16.2105 31.8419 16.4772 31.4634 16.834C31.2871 17.0001 31.1311 17.2032 31.0145 17.4166C30.9517 17.5315 30.9186 17.6297 30.8608 17.7666C30.8196 17.8643 30.7425 18.0149 30.7079 18.1389C30.6375 18.3904 30.5961 18.6608 30.6003 18.9198C30.6008 18.9463 30.6026 18.9715 30.6041 18.9981C30.6147 19.1802 30.6509 19.5272 30.7004 19.7012C30.7654 19.9295 30.8775 20.1877 30.9877 20.3963C31.1103 20.6282 31.2835 20.8377 31.4618 21.0274C31.6755 21.2548 31.9331 21.4599 32.217 21.5917C32.4389 21.6948 32.6795 21.8192 32.9193 21.8774C33.0469 21.9084 33.1982 21.9192 33.3164 21.9351C33.445 21.9524 33.6044 21.9846 33.7453 21.9877C34.0881 21.9951 34.447 21.9451 34.773 21.8353C35.0593 21.7389 35.4264 21.5987 35.6985 21.4174C36.2289 21.0639 36.7544 20.6078 37.0322 20.0191C37.2793 19.4954 37.4297 19.0853 37.4231 18.4889C37.4219 18.3714 37.3812 18.157 37.375 18.1103C37.3606 18.003 37.3481 17.8357 37.3177 17.7093C37.2556 17.4505 37.1409 17.1913 37.009 16.9651C36.9935 16.9385 36.9771 16.9145 36.9602 16.889C36.8467 16.718 36.6787 16.4991 36.5411 16.3475C36.3705 16.1597 36.1193 15.9948 35.9373 15.8607C35.8936 15.8285 35.8514 15.7977 35.8032 15.7721C35.6893 15.7119 35.5525 15.6626 35.4425 15.6162C35.3201 15.5646 35.1822 15.4957 35.048 15.4561C34.3907 15.2624 33.6113 15.2943 32.9582 15.4848C32.8958 15.5029 32.8354 15.5253 32.775 15.549C32.5311 15.6447 32.2786 15.7399 32.0462 15.8628C31.9965 15.8891 31.9483 15.9183 31.9021 15.9504C31.6847 16.1012 31.46 16.2667 31.2645 16.4457C31.2168 16.4895 31.1751 16.5375 31.134 16.5873C30.9759 16.7792 30.8026 16.9787 30.6756 17.194C30.5074 17.4793 30.3649 17.803 30.2995 18.1307C30.256 18.3486 30.2198 18.6216 30.2039 18.8429C30.2016 18.875 30.199 18.9062 30.1992 18.9385C30.2011 19.1923 30.2511 19.4744 30.2988 19.722C30.3303 19.8853 30.4006 20.0182 30.4676 20.177C30.5319 20.3294 30.5837 20.4838 30.6724 20.6227C30.9426 21.0459 31.1258 21.2275 31.4865 21.5062C31.881 21.811 32.0853 21.9129 32.5931 22.1046C32.7998 22.1826 32.9931 22.2 33.2168 22.2301C33.473 22.2645 33.6906 22.3011 33.9434 22.2726C34.2825 22.2344 34.6339 22.2051 34.9617 22.1009C35.3015 21.9929 35.629 21.8396 35.954 21.6952C36.187 21.5916 36.4203 21.4807 36.6294 21.3335C36.8786 21.1581 37.1401 20.9757 37.3568 20.7586C37.4669 20.6484 37.5577 20.5152 37.6516 20.3938C37.7446 20.2733 37.8638 20.1425 37.9372 20.001C38.2039 19.4867 38.3278 19.0401 38.3616 18.462C38.3812 18.1278 38.3366 17.7741 38.22 17.4601C38.0151 16.9082 37.8223 16.5443 37.411 16.106C37.186 15.8662 36.9112 15.6542 36.6204 15.5002C36.3399 15.3516 36.0242 15.1971 35.7051 15.1355C35.4314 15.0826 35.1399 15.0389 34.8609 15.0252C34.7759 15.0211 34.6907 15.0243 34.6061 15.033C34.2349 15.0712 33.8539 15.1093 33.4938 15.215C33.318 15.2665 33.1465 15.3314 32.9754 15.3966C32.6501 15.4739 32.3667 15.6231 32.1253 15.8441C31.8531 16.0204 31.6385 16.2542 31.4814 16.5455C31.2987 16.8325 31.1998 17.1423 31.1847 17.475C31.1103 17.8073 31.1252 18.1396 31.2293 18.4719C31.4251 19.0768 31.8 19.6604 32.3782 19.966L32.9754 20.218C33.4185 20.3371 33.8616 20.3371 34.3046 20.218C34.5923 20.1083 34.881 20.0032 35.1861 19.9541L34.5215 20.0434C34.6734 20.0232 34.8221 20.0188 34.9746 20.0353L34.31 19.946C34.4155 19.9619 34.5137 19.9897 34.6123 20.0303L34.0151 19.7782C34.0982 19.8162 34.1749 19.8606 34.249 19.9141L33.7431 19.5232C33.8135 19.5786 33.8757 19.6385 33.9324 19.708L33.5415 19.202C33.5848 19.2606 33.6205 19.3203 33.6506 19.3865L33.3986 18.7893C33.4196 18.8433 33.4349 18.8962 33.4457 18.953L33.3564 18.2884C33.3657 18.3617 33.3654 18.4311 33.3564 18.5042L33.4457 17.8396C33.4355 17.8949 33.4214 17.9469 33.4021 17.9997L33.6541 17.4025C33.621 17.48 33.5799 17.5495 33.5297 17.6172L33.9206 17.1112C33.847 17.2024 33.7639 17.2809 33.6722 17.3536L34.1782 16.9627C33.9195 17.1581 33.6231 17.296 33.3264 17.423L33.9236 17.171C33.7146 17.2574 33.5029 17.3276 33.2788 17.3619L33.9434 17.2726C33.811 17.2886 33.6815 17.292 33.5491 17.2747L34.2137 17.364C34.1127 17.3472 34.0174 17.321 33.9222 17.2832L34.5194 17.5352C34.4269 17.4945 34.3432 17.446 34.2631 17.3843L34.7691 17.7752C34.7151 17.7298 34.6674 17.6815 34.6232 17.6267L35.0141 18.1327C34.9725 18.0753 34.939 18.0169 34.9109 17.952L35.163 18.5492C35.1412 18.4899 35.1265 18.4316 35.1164 18.3692L35.2057 19.0338C35.1977 18.9528 35.1995 18.8758 35.2102 18.7953L35.1209 19.4599C35.136 19.3793 35.1584 19.3042 35.1894 19.2285L34.9374 19.8257C34.9721 19.7512 35.0122 19.6832 35.0605 19.6169L34.6695 20.1229C34.7307 20.047 34.7977 19.9808 34.8734 19.9194L34.3674 20.3103C34.4716 20.2322 34.582 20.1701 34.7014 20.1184L34.1042 20.3704C34.2478 20.3132 34.3945 20.2739 34.5473 20.2502L33.8827 20.3395C33.9958 20.326 34.1058 20.323 34.2193 20.3337L33.5547 20.2444C33.645 20.2575 33.7298 20.2783 33.8147 20.3116L33.2175 20.0596C33.2885 20.0922 33.3519 20.1305 33.4136 20.1781L32.9077 19.7872C32.9544 19.8277 32.9952 19.8701 33.0337 19.9186L32.6428 19.4126C32.6692 19.4508 32.691 19.4875 32.7118 19.5289L32.4598 18.9317C32.4837 18.9897 32.4992 19.0453 32.5089 19.1072L32.4196 18.4426C32.4232 18.49 32.4231 18.5331 32.4194 18.5804L32.5087 17.9158C32.4993 17.9774 32.4843 18.0342 32.4627 18.0927L32.7148 17.4955C32.6827 17.5689 32.6441 17.6349 32.5976 17.6999L32.9886 17.194C32.9172 17.2849 32.8381 17.3626 32.7477 17.4346L33.2537 17.0437C33.1423 17.1262 33.024 17.1928 32.8965 17.247L33.4937 16.995C33.4098 17.0267 33.3266 17.0506 33.2384 17.0664L33.903 16.9771C33.8171 16.9879 33.7346 16.9898 33.6487 16.9797L34.3133 17.069C34.2544 17.0585 34.1994 17.0433 34.1433 17.0223L34.7405 17.2744C34.686 17.2501 34.6364 17.2225 34.5873 17.1886L35.0933 17.5795C35.047 17.5428 35.0074 17.5043 34.9699 17.4586L35.3608 17.9646C35.3353 17.928 35.315 17.8934 35.2957 17.8532L35.5477 18.4504C35.5326 18.4105 35.5224 18.3753 35.5148 18.3335L35.6041 18.9981C35.6004 18.9575 35.6002 18.9212 35.6033 18.8806L35.514 19.5452C35.5223 19.4921 35.5357 19.4442 35.5561 19.3944L35.3041 19.9916C35.3222 19.9557 35.341 19.9249 35.3646 19.8924L34.9737 20.3984C34.9998 20.3684 35.0249 20.3443 35.056 20.3195L34.5501 20.7104C34.5706 20.6956 34.5925 20.6831 34.6157 20.6728L34.0185 20.9248C34.0421 20.9144 34.0665 20.9067 34.0918 20.9017C34.4172 20.8244 34.7006 20.6752 34.942 20.4543C35.2142 20.278 35.4288 20.0442 35.5859 19.7528C35.7686 19.4659 35.8675 19.156 35.8826 18.8233C35.957 18.491 35.9421 18.1587 35.8379 17.8264C35.6422 17.2215 35.2673 16.6379 34.689 16.3324C34.0873 16.0144 33.4324 15.9094 32.7627 16.0803Z" fill="#FBFBFD"/>
</g>
<defs>
<clipPath id="clip0_199_622">
<rect width="54.2416" height="54.2507" fill="white"/>
</clipPath>
</defs>
</svg>
