<svg width="26" height="37" viewBox="0 0 26 37" fill="none" xmlns="http://www.w3.org/2000/svg">
<g clip-path="url(#clip0_199_613)">
<path d="M0.726322 24.2162C4.3002 27.1013 6.71108 30.9456 9.0864 34.814C10.2419 36.6958 12.9907 36.2566 13.6558 34.2168C17.0766 23.7245 20.8999 13.3682 25.1176 3.17009C25.6339 1.92183 24.5592 0.421138 23.3715 0.0947883C21.9347 -0.300012 20.8144 0.587938 20.2962 1.84089C16.0785 12.039 12.2552 22.3953 8.83437 32.8876L13.4037 32.2904C10.826 28.0924 8.13912 23.8107 4.26184 20.6806C3.21216 19.8332 1.75231 19.6546 0.726312 20.6806C-0.150378 21.5573 -0.329678 23.3637 0.726322 24.2162Z" fill="#FBFBFD"/>
</g>
<defs>
<clipPath id="clip0_199_613">
<rect width="25.2504" height="36.0115" fill="white"/>
</clipPath>
</defs>
</svg>
