<svg width="29" height="38" viewBox="0 0 29 38" fill="none" xmlns="http://www.w3.org/2000/svg">
<g clip-path="url(#clip0_199_632)">
<path d="M6.52883 23.4905L17.1672 36.9083C17.985 37.9398 19.8663 37.8145 20.7027 36.9083C22.7566 34.6834 24.8105 32.4584 26.8643 30.2334C27.785 29.2361 27.8447 27.6923 26.8643 26.6979C22.9096 22.6866 18.955 18.6753 15.0003 14.664L11.9707 18.5904C12.3516 18.8444 12.7248 19.1429 13.1265 19.3612C14.6317 20.179 16.5489 19.1448 18.0395 18.6781C20.8729 17.791 23.7064 16.9039 26.5398 16.0168C28.8659 15.2885 28.9665 11.8809 26.5398 11.1954C18.3768 8.88934 10.7185 5.23266 3.76189 0.3804C2.17876 -0.72384 -0.0164669 0.75341 9.31391e-05 2.53908C0.0792931 11.0774 0.158483 19.6157 0.237673 28.1541C0.255163 30.0393 2.35139 31.2825 3.99947 30.3127C5.52277 29.4164 6.5142 27.9402 7.64 26.6004C8.35592 25.7485 9.0812 24.9034 9.78816 24.0441C10.5951 23.0631 10.9182 22.3532 10.7073 21.0581C10.4901 19.7245 8.83358 18.9818 7.632 19.312C6.21462 19.7016 5.66806 21.0498 5.8859 22.3874L5.91657 22.5757L6.5595 20.1433L3.4907 23.7953C2.74344 24.6845 2.28182 25.5212 1.47587 25.9954L5.23767 28.1541C5.15848 19.6157 5.07928 11.0774 5.00009 2.53908L1.2383 4.69775C8.52595 9.78088 16.661 13.6015 25.2106 16.0168V11.1954C21.3817 12.3942 17.5527 13.593 13.7237 14.7918L15.6501 15.0438L14.4943 14.273C12.0926 12.6714 9.50741 16.2141 11.4648 18.1995C15.4195 22.2108 19.3741 26.2221 23.3288 30.2334V26.6979C21.2749 28.9228 19.2211 31.1478 17.1672 33.3728H20.7028C17.1566 28.9002 13.6105 24.4276 10.0644 19.955C9.22484 18.8961 7.4063 19.0775 6.52884 19.955C5.48299 21.0008 5.68716 22.4289 6.52883 23.4905Z" fill="#FBFBFD"/>
</g>
<defs>
<clipPath id="clip0_199_632">
<rect width="28.3223" height="37.6357" fill="white"/>
</clipPath>
</defs>
</svg>
