<svg width="39" height="47" viewBox="0 0 39 47" fill="none" xmlns="http://www.w3.org/2000/svg">
<g clip-path="url(#clip0_199_620)">
<path d="M21.8009 45.336C25.3906 40.9501 28.749 36.3763 31.8046 31.602C34.6704 27.1243 37.6211 22.3239 38.4432 16.9802C39.1765 12.214 38.1994 7.07372 34.8184 3.46821C31.8618 0.315399 27.087 -0.858001 23.0146 0.657369C20.8436 1.46521 18.8899 2.95364 17.8681 5.07736C16.389 8.15144 16.8225 11.4735 17.3773 14.7148L21.9467 12.7884C20.3265 9.08493 18.1906 5.21642 14.08 3.9036C10.3051 2.69799 5.96957 4.21096 3.31264 7.03686C0.17625 10.3727 -0.49135 15.1044 0.30993 19.4674C1.15107 24.0473 3.84752 27.9776 6.66766 31.5688C10.267 36.1523 14.0293 40.6149 17.7156 45.1286C18.5703 46.1752 20.364 46.0158 21.2511 45.1286C22.286 44.0938 22.1079 42.6422 21.2511 41.5931C18.4656 38.1823 15.6801 34.7716 12.8946 31.3608C10.4926 28.4196 8.01561 25.4872 6.36733 22.0357C4.99104 19.1537 4.35568 15.4999 5.63604 12.4685C6.62025 10.1383 9.08968 8.30958 11.651 8.49127C14.9357 8.72428 16.4853 12.6968 17.6294 15.312C18.1213 16.4366 19.7283 16.7845 20.7512 16.3349C21.9611 15.8031 22.4152 14.6502 22.1987 13.3856C21.8852 11.5537 21.4562 9.38896 22.1854 7.60095C22.6402 6.48594 23.6074 5.74172 24.6254 5.37664C27.2113 4.44931 30.0306 5.22021 31.7892 7.60203C36.8526 14.4595 31.1628 23.3572 27.3631 29.2725C24.5712 33.6187 21.5371 37.8031 18.2654 41.8005C17.4109 42.8445 17.2439 44.3145 18.2654 45.336C19.1472 46.2178 20.9415 46.3861 21.8009 45.336Z" fill="#FBFBFD"/>
</g>
<defs>
<clipPath id="clip0_199_620">
<rect width="38.6726" height="46.0619" fill="white"/>
</clipPath>
</defs>
</svg>
