<svg width="63" height="55" viewBox="0 0 63 55" fill="none" xmlns="http://www.w3.org/2000/svg">
<g clip-path="url(#clip0_199_634)">
<path d="M42.885 50.8176H57.6833C58.871 50.8176 59.6955 50.0247 60.094 48.9823C64.6097 37.1695 63.6106 23.6061 57.6603 12.4819C57.2494 11.7138 56.3564 11.2437 55.5016 11.2437C39.4696 11.2437 23.4376 11.2437 7.40555 11.2437C6.5507 11.2437 5.6577 11.7138 5.24687 12.4819C-0.703438 23.6061 -1.70256 37.1696 2.81313 48.9823C3.21188 50.0253 4.04734 50.8176 5.22383 50.8176H22.0137C25.231 50.8176 25.2363 45.8176 22.0137 45.8176H5.22383L7.63453 47.653C3.58829 37.0684 4.20506 25.0246 9.56424 15.0054L7.40556 16.2436C23.4376 16.2436 39.4696 16.2436 55.5016 16.2436L53.3429 15.0054C58.7021 25.0245 59.3188 37.0685 55.2726 47.653L57.6833 45.8176H42.885C39.6677 45.8176 39.6624 50.8176 42.885 50.8176Z" fill="#FBFBFD"/>
<path d="M33.4316 54.7932C39.6252 54.8602 45.4824 50.4948 47.0869 44.4832C48.6756 38.5307 46.1164 32.034 41.1027 28.5553C36.0394 25.0423 28.6816 25.0793 23.6493 28.6203C18.3651 32.3386 15.595 39.0835 17.7724 45.3575C20.0318 51.8675 27.3121 56.0045 34.0962 54.7039C35.423 54.4495 36.1797 52.8562 35.8423 51.6286C35.4607 50.2401 34.0976 49.6274 32.767 49.8825C29.1399 50.5778 24.5552 48.1722 22.9208 44.8052C21.0612 40.9741 22.2366 36.5193 25.2732 33.688C28.3598 30.81 33.1814 30.1062 36.9871 31.9394C40.7156 33.7354 42.9598 37.7921 42.5089 41.9185C42.0189 46.4022 37.871 49.8412 33.4316 49.7932C30.2132 49.7583 30.2109 54.7583 33.4316 54.7932Z" fill="#FBFBFD"/>
<path d="M47.2088 41.7151C50.6281 33.8834 48.5962 24.0043 40.6981 19.7824C32.7121 15.5136 22.5426 18.0018 17.6604 25.6961C14.6976 30.3655 14.5946 36.2103 16.9105 41.1493C17.4836 42.3717 19.2408 42.6838 20.3309 42.0462C21.5835 41.3135 21.8031 39.8527 21.2278 38.6257C18.3586 32.5067 22.1074 25.3165 28.3307 23.2754C33.8619 21.4614 41.077 23.7651 43.1004 29.6001C44.1516 32.6315 44.19 36.2173 42.8915 39.1915C42.3516 40.4279 42.5277 41.8746 43.7883 42.612C44.8474 43.2314 46.6657 42.959 47.2088 41.7151Z" fill="#FBFBFD"/>
<path d="M13.5255 13.0607C13.304 12.4511 13.0942 11.8432 13.0015 11.1988L13.0908 11.8634C13.06 11.5727 13.0557 11.2911 13.0852 10.9999L12.9959 11.6645C13.0165 11.5253 13.0564 11.3896 13.0775 11.2515C13.1596 11.0019 13.1236 11.0705 12.9695 11.4575L13.0323 11.334C13.3345 10.9539 12.5906 11.6963 12.968 11.3963C13.3567 11.0873 12.4481 11.6997 12.8787 11.4487C12.997 11.3797 13.1125 11.3146 13.2339 11.2509C13.6729 11.0205 12.6697 11.4452 13.1456 11.295C13.4276 11.2061 13.7086 11.1168 13.9936 11.0373C15.2893 10.6759 16.6081 10.4073 17.94 10.2206L17.2754 10.3099C17.8864 10.2279 18.4988 10.1631 19.1134 10.1157L16.6134 7.61567C16.7415 9.55403 16.8696 11.4924 16.9978 13.4307C17.0838 14.733 18.086 15.994 19.4978 15.9307C20.7784 15.8734 22.0901 14.8282 21.9978 13.4307C21.8696 11.4924 21.7415 9.55403 21.6134 7.61567C21.5296 6.34775 20.5337 5.00605 19.1134 5.11567C17.7195 5.22325 16.3256 5.40666 14.9533 5.67454C13.8161 5.89651 12.6381 6.14267 11.5583 6.57081C9.96627 7.20202 8.6158 8.30391 8.22225 10.0582C7.88772 11.5493 8.1929 12.9827 8.70406 14.3899C8.93002 15.0119 9.26616 15.5406 9.85296 15.884C10.3888 16.1976 11.1786 16.3304 11.7794 16.136C12.9842 15.7461 14.0035 14.3767 13.5255 13.0607Z" fill="#FBFBFD"/>
<path d="M54.637 11.2435C51.6568 10.8548 48.7936 9.05752 47.0755 6.6121C45.9483 5.00767 44.9897 3.3561 43.3763 2.17879C41.9708 1.15322 40.2893 0.626596 38.5835 0.380196C34.9771 -0.140764 30.6049 -0.277644 27.1409 0.961196C25.3641 1.59665 23.7473 2.58969 22.5604 4.07296C21.9605 4.82267 21.5338 5.6441 21.0769 6.48169C20.7467 7.08697 20.4813 7.74835 19.7731 7.91618C16.6434 8.65777 17.9684 13.4802 21.1023 12.7376C23.1044 12.2632 24.4439 10.7473 25.3943 9.0053C26.1774 7.56971 26.8242 6.45789 28.402 5.80758C30.007 5.1461 31.8045 5.12782 33.5104 5.11814C35.1213 5.109 36.808 5.04158 38.3893 5.39706C39.8427 5.72379 40.8493 6.3487 41.7165 7.5731C42.737 9.01402 43.6395 10.5027 44.9232 11.7378C47.6124 14.3254 50.9706 15.7653 54.637 16.2435C55.9782 16.4185 57.137 14.9693 57.137 13.7435C57.137 12.2473 55.9822 11.419 54.637 11.2435Z" fill="#FBFBFD"/>
</g>
<defs>
<clipPath id="clip0_199_634">
<rect width="62.9071" height="54.9427" fill="white"/>
</clipPath>
</defs>
</svg>
