<svg width="51" height="59" viewBox="0 0 51 59" fill="none" xmlns="http://www.w3.org/2000/svg">
<g clip-path="url(#clip0_199_640)">
<path d="M28.4632 44.5515C34.8251 34.8372 41.187 25.1228 47.5489 15.4084C49.0995 13.0406 50.3448 10.9267 50.226 8.0123C50.1663 6.5498 50.2894 5.09129 49.9523 3.64838C49.0344 -0.279837 45.0187 -0.447407 41.7818 0.442413C40.6483 0.754013 39.494 0.975873 38.4281 1.52503C37.3526 2.07914 36.4137 2.95313 35.5831 3.82118C33.6558 5.83545 31.7846 7.90564 29.8745 9.93641C25.9807 14.0759 22.0584 18.1884 18.1552 22.319C16.1474 24.4438 14.1446 26.5734 12.1534 28.7137C11.1766 29.7637 10.3548 30.5126 9.13712 31.2703C7.97648 31.9926 6.63751 32.6439 5.64129 33.5924C3.49279 35.6381 4.27225 38.4156 6.35773 40.1127C7.4858 41.0307 8.63097 41.9284 9.76984 42.8329C12.9012 45.32 16.0392 47.7987 19.1663 50.2911C20.9436 51.7077 23.0487 53.8592 25.4924 52.521C26.9086 51.7455 27.2836 50.2246 27.6092 48.7749C27.9669 47.1821 28.3246 45.5893 28.6823 43.9964L28.0394 45.0996L28.0723 45.0575C28.9024 43.9944 29.1091 42.5588 28.0723 41.522C27.208 40.6577 25.3724 40.4517 24.5367 41.522C23.695 42.6 23.5647 43.9861 23.2707 45.2954C23.1276 45.9325 22.9845 46.5697 22.8414 47.2068C22.7699 47.5253 22.7006 47.8445 22.6268 48.1625C22.3996 49.141 22.4253 48.2144 23.2208 48.0311H24.55C23.887 47.9406 22.9263 46.934 22.2034 46.3586C21.0801 45.4645 19.9554 44.5722 18.8306 43.6801C16.4452 41.788 14.0576 39.8985 11.6758 38.0017C11.4082 37.7886 9.45973 35.9241 9.20442 35.9984C9.07299 36.0366 9.16528 37.261 9.06689 37.2194C9.06404 37.2182 9.52601 36.9165 9.58836 36.8773C10.0703 36.5738 10.5555 36.2754 11.039 35.9746C12.0948 35.3176 13.3039 34.7252 14.1973 33.8573C17.561 30.5893 20.6401 26.9608 23.8671 23.5548C27.1615 20.0777 30.4633 16.6074 33.7437 13.117C35.3568 11.4007 36.9623 9.67735 38.5639 7.95035C39.1416 7.32746 39.7203 6.63336 40.4213 6.14703C41.1247 5.65911 41.9235 5.61062 42.7338 5.37198C43.384 5.18046 44.2153 4.96676 44.6288 4.93505C44.7523 4.92558 45.5168 4.89403 45.2122 4.90449C44.8259 4.91776 45.2981 4.90591 45.2691 4.92136C45.4895 4.99179 45.4997 4.98662 45.2999 4.90585C45.135 4.82771 45.1108 4.8192 45.2273 4.88035C45.2643 4.91494 44.9075 4.5433 45.2505 4.91996C45.011 4.65699 45.0517 4.70192 45.0144 4.56643C45.0682 4.76196 45.1189 4.95661 45.1671 5.15383C45.1994 5.2861 45.2056 5.61853 45.1569 5.05446C45.1685 5.18912 45.1847 5.32442 45.1891 5.45958C45.2275 6.63946 45.4408 8.05992 45.2554 9.21073C45.1112 10.1063 44.5072 10.9219 44.0283 11.6663C43.3648 12.6977 42.6852 13.7191 42.0133 14.745C36.0575 23.8393 30.1016 32.9336 24.1458 42.0279C22.3778 44.7276 26.7054 47.2356 28.4632 44.5515Z" fill="#FBFBFD"/>
<path d="M22.1179 18.489C17.9365 18.6295 13.7551 18.7699 9.57371 18.9103C7.56065 18.9779 5.4621 19.0234 3.74392 20.2191C2.22253 21.2779 1.21714 22.8145 0.324395 24.4071C-0.164665 25.2795 -0.151375 26.7548 0.715305 27.4366C3.41182 29.5581 6.10836 31.6796 8.80488 33.8011C9.86499 34.6351 11.306 34.8355 12.3404 33.8011C13.2075 32.934 13.4074 31.105 12.3404 30.2656C9.64389 28.1441 6.94736 26.0226 4.25083 23.9011L4.64174 26.9307C5.20696 25.9223 5.84982 24.6315 6.76213 24.2244C7.98296 23.6797 9.77885 23.9034 11.1417 23.8577C14.8005 23.7348 18.4592 23.6119 22.1179 23.489C23.4678 23.4437 24.6179 22.3725 24.6179 20.989C24.6179 19.6696 23.4736 18.4435 22.1179 18.489Z" fill="#FBFBFD"/>
<path d="M32.1815 31.2477L34.4032 41.6022C34.5815 42.4331 34.7605 43.2639 34.9381 44.095C35.0845 44.7802 35.3333 45.5826 35.1905 46.296C34.9896 47.2999 33.8154 48.2731 33.0455 48.999H36.5811C33.869 46.8974 31.157 44.7958 28.4449 42.6942C27.3788 41.868 25.9487 41.6549 24.9094 42.6942C24.0479 43.5556 23.836 45.3979 24.9094 46.2297C27.6214 48.3313 30.3335 50.4329 33.0455 52.5345C34.1388 53.3817 35.4957 53.5579 36.5811 52.5345C37.9613 51.2331 39.3064 49.795 39.894 47.9465C40.5409 45.9114 39.9864 43.8233 39.5537 41.807C38.7035 37.8442 37.8532 33.8813 37.0029 29.9185C36.7196 28.5978 35.1758 27.8294 33.9276 28.1724C32.5618 28.5477 31.8973 29.9232 32.1815 31.2477Z" fill="#FBFBFD"/>
<path d="M13.6983 42.399C10.6149 42.8314 7.58857 43.6958 5.75371 46.4174C4.87492 47.7208 4.73918 49.2814 4.5274 50.7909C4.30809 52.3541 4.08879 53.9172 3.86948 55.4803C3.74095 56.3964 3.8201 57.2203 4.51241 57.9127C5.13348 58.5337 6.09391 58.8076 6.94478 58.5556C7.14827 58.4953 7.35178 58.4419 7.56012 58.401C8.21505 58.2725 7.18471 58.3985 7.70654 58.3792C8.07491 58.3657 8.44145 58.3391 8.81052 58.3374C9.60873 58.3338 10.4079 58.3743 11.2054 58.3255C13.1831 58.2046 15.1756 57.5982 16.5172 56.0527C17.8226 54.549 18.4756 52.7285 18.6184 50.756C18.7627 48.763 18.2381 46.7491 17.7252 44.8402C17.386 43.5774 15.9292 42.6801 14.6499 43.0941C13.3542 43.5134 12.5403 44.816 12.9038 46.1694C13.1169 46.9626 13.3296 47.7569 13.4861 48.5637C13.5267 48.7735 13.5595 48.9843 13.5957 49.1948C13.6478 49.4981 13.575 48.7791 13.5972 49.2695C13.6165 49.6959 13.6496 50.1155 13.6306 50.5431C13.6228 50.7159 13.5814 50.9163 13.5868 51.0893L13.6279 50.7576C13.6091 50.8685 13.5876 50.9789 13.5633 51.0888C13.4958 51.3935 13.3934 51.6812 13.2991 51.9779C13.2076 52.2657 13.5431 51.5236 13.3181 51.9197C13.2358 52.0647 13.1645 52.2151 13.077 52.3575C13.0341 52.4284 12.989 52.4979 12.9417 52.5659C12.8355 52.7185 12.8841 52.6603 13.0874 52.3913C12.9714 52.4827 12.8636 52.6512 12.7575 52.7568L12.6391 52.8701C12.4361 53.0443 12.4778 53.0179 12.7641 52.7909C12.7656 52.8428 12.4555 52.9926 12.4167 53.015C12.341 53.06 12.2635 53.1017 12.1842 53.1402C12.4827 53.024 12.5451 52.9987 12.3713 53.0641C12.2305 53.108 12.0928 53.161 11.9502 53.2C11.8863 53.2175 11.4965 53.3622 11.4314 53.3146C11.773 53.2747 11.8472 53.2655 11.6541 53.2872C11.5648 53.2977 11.4753 53.3063 11.3857 53.313C11.022 53.3421 10.6567 53.349 10.292 53.3496C8.72205 53.3522 7.14161 53.2823 5.61554 53.7342L8.69084 56.8095C8.88465 55.4281 9.07845 54.0468 9.27226 52.6654C9.36844 51.9799 9.4593 51.2934 9.56182 50.6088C9.60841 50.2977 9.65916 49.9864 9.73694 49.6813C9.75559 49.6081 9.895 49.0366 9.79935 49.4033C9.71866 49.7127 9.85603 49.2963 9.89522 49.2264C9.95 49.1287 10.0124 49.0363 10.071 48.941C10.346 48.4946 9.82358 49.1803 10.04 48.9834C10.1595 48.8746 10.539 48.5983 10.584 48.4534C10.3209 48.6489 10.2643 48.6924 10.414 48.5838C10.4597 48.5499 10.5063 48.5174 10.5538 48.4861C10.6716 48.4063 10.7918 48.33 10.9148 48.2585C11.0131 48.2013 11.113 48.1465 11.2141 48.0944C11.2377 48.0822 11.7376 47.8498 11.3936 47.9996C11.0416 48.1529 11.5739 47.9385 11.6471 47.9135C11.8068 47.8589 11.9683 47.8095 12.1306 47.7633C12.4234 47.68 12.7196 47.6094 13.0176 47.5472C13.6822 47.4083 14.3554 47.3147 15.0274 47.2204C15.602 47.1399 16.2437 46.5463 16.5215 46.0715C16.8351 45.5357 16.968 44.7459 16.7735 44.1451C16.5778 43.5402 16.2029 42.9566 15.6246 42.6511C14.9884 42.3149 14.4038 42.3001 13.6983 42.399Z" fill="#FBFBFD"/>
<path d="M38.6952 13.2645C38.9822 13.4472 39.2921 13.5462 39.6248 13.5613C39.9571 13.6357 40.2894 13.6208 40.6217 13.5166C40.9471 13.4393 41.2305 13.2901 41.4719 13.0692C41.7441 12.8929 41.9587 12.6591 42.1158 12.3677L42.3678 11.7705C42.4869 11.3275 42.4869 10.8844 42.3678 10.4413L42.1158 9.84413C41.8936 9.46846 41.5946 9.1695 41.2189 8.94725C40.932 8.76456 40.622 8.6656 40.2893 8.65051C39.957 8.57609 39.6247 8.59098 39.2924 8.69516C38.9671 8.77251 38.6837 8.92167 38.4422 9.14265C38.1701 9.31893 37.9555 9.55273 37.7984 9.84406L37.5463 10.4413C37.4273 10.8843 37.4273 11.3274 37.5463 11.7705L37.7984 12.3677C38.0206 12.7433 38.3196 13.0423 38.6952 13.2645Z" fill="#FBFBFD"/>
</g>
<defs>
<clipPath id="clip0_199_640">
<rect width="50.234" height="58.6489" fill="white"/>
</clipPath>
</defs>
</svg>
