<svg width="54" height="54" viewBox="0 0 54 54" fill="none" xmlns="http://www.w3.org/2000/svg">
<g clip-path="url(#clip0_199_627)">
<path d="M1.84644 3.33409C0.44163 18.4633 -0.162351 33.6582 0.0371595 48.8513C0.0553795 50.2391 1.169 51.3016 2.53716 51.3513C17.927 51.9095 33.3168 52.4677 48.7067 53.0259C49.7048 53.0621 50.9435 52.2306 51.1174 51.1905C53.6676 35.9328 54.5195 20.4404 53.5472 4.99918C53.4548 3.53111 52.4674 2.66177 51.0472 2.49918C35.5829 0.728747 20.0226 -0.102583 4.45769 0.0100867C1.2416 0.0333667 1.23426 5.03342 4.45769 5.01009C20.0226 4.89743 35.5829 5.72875 51.0472 7.49917L48.5472 4.99917C49.4905 19.9796 48.7709 35.054 46.296 49.8613L48.7067 48.0259C33.3168 47.4677 17.927 46.9095 2.53716 46.3513L5.03716 48.8513C4.83765 33.6582 5.44163 18.4633 6.84643 3.33409C6.97143 1.98783 5.60793 0.834087 4.34643 0.834087C2.89028 0.834087 1.9718 1.98399 1.84644 3.33409Z" fill="#FBFBFD"/>
<path d="M26.097 9.71477C25.4214 9.80774 24.8683 9.97637 24.2389 10.2706C23.9006 10.4288 23.5961 10.6857 23.3193 10.9278C23.2414 10.996 23.1743 11.0711 23.109 11.151C22.9286 11.3719 22.7241 11.5988 22.5926 11.8557C22.3083 12.4107 22.1581 12.9058 22.1316 13.5296C22.1047 14.16 22.284 14.6656 22.5385 15.2225C22.833 15.8669 23.4515 16.462 24.0683 16.8003C24.7697 17.1849 25.592 17.3981 26.3946 17.3445C27.0822 17.2987 27.7426 17.1559 28.3996 16.9618C28.602 16.902 28.8008 16.836 28.9964 16.7565C29.3647 16.6066 29.7458 16.4702 30.0692 16.234C30.5804 15.8606 30.9271 15.5554 31.2712 15.0199C31.4787 14.6968 31.6438 14.3223 31.7163 13.9444C31.8307 13.3473 31.8683 12.8391 31.7072 12.2425C31.5557 11.682 31.258 11.1782 30.851 10.7659C30.4491 10.3588 29.9724 10.1218 29.4406 9.9323C29.0728 9.80124 28.6641 9.76738 28.2767 9.75141C28.0891 9.74367 27.9016 9.75814 27.7152 9.77831C27.2883 9.82449 26.8507 9.86298 26.4327 9.96781C25.5642 10.1856 24.808 10.6741 24.2643 11.3778C23.9722 11.7558 23.7384 12.1559 23.6221 12.6296C23.5541 12.9063 23.5146 13.1989 23.5142 13.4854C23.514 13.7134 23.5705 13.9879 23.6074 14.2128C23.6178 14.2759 23.6283 14.3326 23.6472 14.3939C23.92 15.2804 24.5547 16.09 25.3858 16.5198C26.1358 16.9077 26.9677 17.0745 27.8105 17.0227C28.6085 16.9737 29.3392 16.8691 30.054 16.4961C31.2744 15.8594 31.9372 14.3979 31.575 13.0622C31.1977 11.6706 29.8515 10.7334 28.429 10.7437C27.5331 10.7501 26.6672 11.1024 25.8818 11.5C25.2567 11.8164 24.685 12.2582 24.1676 12.7256C23.7067 13.1421 23.4354 13.8853 23.4354 14.4934C23.4354 15.1066 23.7077 15.839 24.1676 16.2612C24.6441 16.6985 25.2696 17.0232 25.9354 16.9934C26.6175 16.9628 27.1928 16.7223 27.7032 16.2612C27.8184 16.157 27.9368 16.0577 28.0593 15.9622L27.5534 16.3531C27.9261 16.0711 28.3274 15.8385 28.7573 15.6551L28.1601 15.9071C28.4093 15.8051 28.6624 15.7133 28.9286 15.6679L28.264 15.7572C28.3759 15.7444 28.4811 15.7424 28.5932 15.7541L27.9286 15.6648C28.0021 15.6791 28.0625 15.6953 28.1316 15.7229L27.5344 15.4708C27.5948 15.5014 27.6454 15.5329 27.6995 15.5737L27.1935 15.1827C27.2266 15.2101 27.2569 15.2403 27.2843 15.2734L26.8933 14.7674C26.933 14.8209 26.961 14.8683 26.9878 14.9292L26.7358 14.332C26.7503 14.3711 26.7596 14.4113 26.7635 14.4528L26.6742 13.7882C26.6777 13.8275 26.6763 13.8666 26.6701 13.9055L26.7594 13.2409C26.7541 13.2751 26.7451 13.3083 26.7325 13.3405L26.9846 12.7433C26.9627 12.7912 26.94 12.8297 26.9089 12.8722L27.2998 12.3662C27.2646 12.406 27.2299 12.4388 27.1887 12.4724L27.6946 12.0815C27.6339 12.1242 27.572 12.1591 27.5049 12.1909L28.1021 11.9388C27.9379 12.0074 27.7679 12.0474 27.5921 12.0728L28.2567 11.9835C27.8896 12.0282 27.5143 12.0535 27.1462 12.0084L27.8108 12.0977C27.6585 12.0731 27.5131 12.0369 27.3703 11.9778L27.9675 12.2298C27.8691 12.1835 27.7791 12.1302 27.6914 12.0662L28.1973 12.4571C28.1135 12.3894 28.0402 12.3171 27.9726 12.2334L28.3635 12.7393C28.3143 12.6707 28.2737 12.6018 28.2384 12.5251L28.4904 13.1223C28.4604 13.0433 28.4407 12.9673 28.4288 12.8836L28.5181 13.5482C28.514 13.4823 28.5152 13.4227 28.5216 13.357L28.4323 14.0216C28.4475 13.9359 28.4706 13.8579 28.5037 13.7775L28.2517 14.3747C28.2903 14.296 28.3341 14.2248 28.3862 14.1544L27.9953 14.6603C28.0663 14.5746 28.1426 14.5003 28.2296 14.431L27.7236 14.8219C27.8203 14.7523 27.9198 14.6967 28.028 14.647L27.4308 14.899C27.6741 14.7998 27.9257 14.7479 28.1852 14.712L27.5206 14.8013C27.8371 14.7616 28.1531 14.7304 28.4713 14.7682L27.8067 14.6789C27.9322 14.6984 28.0503 14.7284 28.1679 14.7771L27.5707 14.5251C27.6447 14.5611 27.7108 14.6014 27.776 14.6517L27.2701 14.2608C27.3176 14.3034 27.3574 14.3453 27.3978 14.3947L27.0069 13.8888C27.0438 13.9424 27.0726 13.9927 27.0999 14.0517L26.8479 13.4545C26.8698 13.5143 26.8854 13.5698 26.8978 13.6322L26.8085 12.9676C26.8191 13.052 26.8205 13.1321 26.8142 13.2168L26.9035 12.5522C26.8887 12.6605 26.8625 12.7609 26.8242 12.863L27.0762 12.2658C27.032 12.3672 26.98 12.4594 26.9161 12.5495L27.307 12.0435C27.2353 12.1342 27.1572 12.2114 27.0686 12.2854L27.5746 11.8945C27.4179 12.0144 27.2502 12.1075 27.07 12.1872L27.6672 11.9351C27.1348 12.1556 26.548 12.3184 25.9792 12.4072L26.6438 12.3179C26.3937 12.3511 26.1476 12.3594 25.8969 12.3288L26.5615 12.4181C26.4262 12.396 26.2989 12.3633 26.1706 12.3143L26.7678 12.5663C26.6266 12.506 26.4989 12.433 26.3759 12.3411L26.8819 12.7321C26.7821 12.6509 26.6946 12.5634 26.6153 12.462L27.0062 12.9679C26.9457 12.8823 26.8966 12.7953 26.8559 12.6989L27.1079 13.2961C27.0799 13.2173 27.0602 13.1403 27.0471 13.0577L27.1364 13.7223C27.1282 13.6344 27.1293 13.551 27.1388 13.4632L27.0495 14.1278C27.065 14.0391 27.0879 13.9568 27.1197 13.8726L26.8677 14.4698C26.9138 14.3659 26.9688 14.2724 27.0355 14.1806L26.6446 14.6865C26.7312 14.5785 26.8261 14.4847 26.9341 14.3979L26.4282 14.7888C26.5669 14.6864 26.7116 14.6081 26.8703 14.5408L26.2731 14.7928C26.6446 14.6495 27.0337 14.5902 27.4262 14.5362C28 14.4572 28.6432 13.8608 28.9203 13.3873C29.2339 12.8514 29.3667 12.0617 29.1723 11.4609C28.9765 10.856 28.6017 10.2723 28.0234 9.96681L27.4262 9.71479C26.9831 9.59572 26.5401 9.5957 26.097 9.71477Z" fill="#FBFBFD"/>
<path d="M13.8906 28.525L38.8314 29.0122C42.0501 29.0751 42.05 24.0751 38.8314 24.0122L13.8906 23.525C10.6718 23.4621 10.6719 28.4621 13.8906 28.525Z" fill="#FBFBFD"/>
<path d="M13.8906 40.1861L38.8314 40.6734C42.0501 40.7363 42.05 35.7363 38.8314 35.6734L13.8906 35.1861C10.6718 35.1233 10.6719 40.1233 13.8906 40.1861Z" fill="#FBFBFD"/>
</g>
<defs>
<clipPath id="clip0_199_627">
<rect width="53.9383" height="53.027" fill="white"/>
</clipPath>
</defs>
</svg>
